<?xml version="1.0" encoding="utf-8"?>
<!-- Generator: Adobe Illustrator 26.5.0, SVG Export Plug-In . SVG Version: 6.00 Build 0)  -->
<svg version="1.1" id="Layer_1" xmlns="http://www.w3.org/2000/svg" xmlns:xlink="http://www.w3.org/1999/xlink" x="0px" y="0px"
	 viewBox="0 0 1071.28 1024" style="enable-background:new 0 0 1071.28 1024;" xml:space="preserve">
<style type="text/css">
	.st0{fill:#F7F5F2;}
	.st1{fill:#18EED4;}
	.st2{fill:#2C0D00;}
</style>
<g>
	<polygon class="st0" points="611.84,824.01 666.6,824.01 666.6,997.66 611.84,997.66 611.84,1024 752.05,1024 752.05,997.66 
		697.3,997.66 697.3,824.01 752.05,824.01 752.05,797.66 611.84,797.66 	"/>
	<path class="st0" d="M125.61,797.66h-23.49c-14.62,0-19.58,7.77-23.65,19.1L0,1024h34.03l20.77-56.13h118.13L193.7,1024h34.03
		l-78.47-207.23C145.16,805.35,140.24,797.66,125.61,797.66z M65.87,937.96l43.79-118.33l8.39,0.01l43.8,118.32H65.87z"/>
	<path class="st0" d="M992.81,816.77c-4.1-11.42-9.03-19.1-23.65-19.1h-23.49c-14.62,0-19.58,7.77-23.65,19.1L843.54,1024h34.03
		l20.77-56.13h118.13l20.77,56.13h34.03L992.81,816.77z M909.42,937.96l43.79-118.33l8.39,0.01l43.8,118.32H909.42z"/>
	<path class="st0" d="M506.49,868.81c0-39.29-31.85-71.15-71.15-71.15H319.8v0V1024h29.64v-84.12c0,0,45.08,0.03,69.93,0.05
		l47.2,84.07h34.93l-49.89-85.95C483.06,930.68,506.49,902.46,506.49,868.81z M429.5,910.37c-18.37,0-79.79,0-79.79,0v-82.8h79.79
		c27.06,0,46.13,16.59,46.86,38.36c0.02,0.48,0.02,4.47,0.02,4.95C476.39,893.4,457.15,910.37,429.5,910.37z"/>
	<path class="st0" d="M448.38,0c-45.1,0-85.61,28.53-100.82,70.99L104.91,748.65h8.29L354.91,73.62
		c11.08-30.95,36.67-53.9,67.42-62.31c-24.18,12.1-43.53,33.17-53.02,59.67L126.65,748.65h8.29L376.65,73.62
		c11.08-30.94,36.67-53.9,67.41-62.31c-24.18,12.1-43.53,33.17-53.02,59.67L148.39,748.65h8.29L398.39,73.62
		c11.08-30.94,36.67-53.9,67.41-62.31c-24.18,12.1-43.53,33.17-53.02,59.67L170.13,748.65h8.29L420.13,73.62
		c10.28-28.71,33.06-50.54,60.85-60.26c0.55,0.19,1.11,0.38,1.65,0.59c-21.87,12.4-39.28,32.36-48.11,57.04L191.87,748.65h8.29
		L441.87,73.62c8.91-24.87,27.19-44.58,49.98-55.72c1.17,0.57,2.33,1.16,3.47,1.78c-17.6,12.43-31.48,30.14-39.06,51.31
		L213.61,748.65h8.29L463.61,73.62c7.44-20.78,21.42-37.95,39.11-49.54c1.6,1.05,3.16,2.14,4.69,3.28
		c-13.02,11.64-23.28,26.5-29.41,43.63L235.35,748.65h8.29L485.35,73.62c5.84-16.31,15.72-30.39,28.25-41.3
		c1.93,1.68,3.79,3.43,5.58,5.25c-8.31,9.7-14.97,20.95-19.43,33.42L257.09,748.65h8.29L507.09,73.62
		c4.03-11.24,9.97-21.42,17.38-30.24c2.22,2.64,4.29,5.41,6.23,8.28c-3.67,6.05-6.77,12.51-9.22,19.33L278.83,748.65h8.29
		L528.84,73.62c1.8-5.02,3.99-9.83,6.51-14.41c2.5,4.52,4.66,9.28,6.44,14.24l243.19,675.21h8.3L549.13,70.8
		c-2.43-6.76-5.52-13.16-9.15-19.15c1.94-2.87,4.02-5.64,6.23-8.28c7.37,8.77,13.29,18.9,17.32,30.07l243.19,675.21h8.3L570.87,70.8
		c-4.46-12.4-11.1-23.59-19.37-33.24c1.79-1.82,3.66-3.57,5.58-5.25c12.49,10.87,22.34,24.9,28.19,41.13l243.19,675.21h8.3
		L592.61,70.8c-6.14-17.05-16.38-31.85-29.36-43.44c1.53-1.14,3.09-2.23,4.69-3.28c17.65,11.56,31.61,28.67,39.06,49.37
		L850.2,748.65h8.3L614.35,70.8c-7.6-21.09-21.45-38.73-39.01-51.13c1.14-0.62,2.3-1.21,3.47-1.78
		c22.75,11.12,41.01,30.76,49.93,55.55l243.18,675.21h8.3L636.1,70.8c-8.86-24.59-26.24-44.49-48.06-56.85
		c0.55-0.2,1.1-0.39,1.66-0.59c27.74,9.7,50.49,31.46,60.8,60.08l243.18,675.21h8.3L657.84,70.8
		c-9.52-26.42-28.85-47.42-52.98-59.49c30.69,8.39,56.26,31.28,67.37,62.14l243.18,675.21h8.3L679.58,70.8
		c-9.52-26.42-28.85-47.42-52.98-59.49c30.69,8.39,56.26,31.28,67.37,62.14l243.19,675.21h8.3L701.32,70.8
		c-9.52-26.42-28.85-47.42-52.98-59.49c30.69,8.39,56.26,31.28,67.37,62.14L958.9,748.65h8.3L723.06,70.8
		C707.8,28.45,667.31,0,622.31,0H448.38z M546.21,14.89c-0.55-0.32-1.1-0.63-1.66-0.95c0.55-0.2,1.1-0.39,1.66-0.59
		c0.55,0.19,1.11,0.38,1.65,0.59C547.31,14.26,546.76,14.57,546.21,14.89z M535.34,22.23c-1.14-0.88-2.3-1.73-3.47-2.56
		c1.14-0.62,2.3-1.21,3.47-1.78c1.17,0.57,2.33,1.16,3.47,1.78C537.63,20.5,536.48,21.36,535.34,22.23z M522.81,13.95
		c0.55-0.2,1.1-0.39,1.66-0.59c0.55,0.19,1.11,0.38,1.65,0.59c-0.55,0.31-1.11,0.62-1.65,0.95
		C523.92,14.57,523.37,14.26,522.81,13.95z M501.07,13.95c0.55-0.2,1.1-0.39,1.66-0.59c0.55,0.19,1.11,0.38,1.65,0.59
		c-0.55,0.31-1.11,0.62-1.65,0.95C502.18,14.57,501.62,14.26,501.07,13.95z M510.13,19.67c1.14-0.62,2.3-1.21,3.47-1.78
		c1.17,0.57,2.33,1.16,3.47,1.78c-1.17,0.83-2.33,1.69-3.47,2.56C512.46,21.36,511.3,20.5,510.13,19.67z M519.78,27.36
		c1.53-1.14,3.09-2.23,4.69-3.28c1.6,1.05,3.16,2.14,4.69,3.28c-1.61,1.44-3.17,2.93-4.69,4.47
		C522.95,30.29,521.39,28.79,519.78,27.36z M535.34,44.65c-1.76-2.45-3.63-4.81-5.58-7.09c1.79-1.82,3.66-3.57,5.58-5.25
		c1.93,1.68,3.79,3.43,5.58,5.25C538.97,39.84,537.11,42.2,535.34,44.65z M546.21,31.82c-1.52-1.54-3.08-3.03-4.69-4.47
		c1.53-1.14,3.09-2.23,4.69-3.28c1.6,1.05,3.16,2.14,4.69,3.28C549.29,28.79,547.73,30.29,546.21,31.82z M557.08,22.23
		c-1.14-0.88-2.3-1.73-3.47-2.56c1.14-0.62,2.3-1.21,3.47-1.78c1.17,0.57,2.33,1.16,3.47,1.78
		C559.37,20.5,558.22,21.36,557.08,22.23z M567.95,14.89c-0.55-0.32-1.1-0.63-1.66-0.95c0.55-0.2,1.1-0.39,1.66-0.59
		c0.55,0.19,1.11,0.38,1.65,0.59C569.05,14.26,568.5,14.57,567.95,14.89z"/>
</g>
</svg>
